<?xml version="1.0" standalone="no"?>
<!DOCTYPE svg PUBLIC "-//W3C//DTD SVG 20010904//EN"
 "http://www.w3.org/TR/2001/REC-SVG-20010904/DTD/svg10.dtd">
<svg version="1.0" xmlns="http://www.w3.org/2000/svg"
 width="1280.000000pt" height="1280.000000pt" viewBox="0 0 1280.000000 1280.000000"
 preserveAspectRatio="xMidYMid meet">

<g transform="translate(0.000000,1280.000000) scale(0.100000,-0.100000)"
fill="#000000" stroke="none">
<path d="M0 6400 l0 -6400 6400 0 6400 0 0 6400 0 6400 -6400 0 -6400 0 0
-6400z m6935 4665 c257 -23 438 -55 685 -122 127 -34 323 -99 368 -122 20 -10
50 -21 65 -25 40 -10 268 -122 412 -202 120 -67 215 -128 355 -228 41 -29 112
-77 157 -105 46 -29 111 -73 146 -99 34 -26 73 -55 87 -64 14 -10 55 -41 92
-70 36 -29 95 -75 130 -103 244 -191 540 -491 690 -699 164 -227 258 -376 341
-541 114 -226 137 -280 241 -560 83 -223 165 -582 207 -905 16 -118 22 -234
26 -491 5 -320 3 -370 -27 -664 -26 -260 -139 -746 -236 -1020 -94 -265 -256
-628 -341 -762 -18 -29 -33 -55 -33 -59 0 -20 -207 -342 -289 -449 -25 -33
-57 -76 -71 -97 -87 -129 -331 -401 -526 -585 -136 -128 -360 -320 -433 -369
-20 -14 -50 -35 -66 -47 -73 -54 -195 -137 -200 -137 -3 0 -38 -22 -78 -48
-40 -27 -108 -68 -152 -92 -44 -23 -115 -62 -157 -86 -70 -40 -202 -104 -213
-104 -3 0 -49 -21 -102 -46 -90 -42 -202 -86 -343 -133 -100 -34 -345 -109
-370 -114 -14 -3 -70 -15 -125 -27 -152 -33 -298 -57 -550 -92 -118 -16 -784
-17 -875 -1 -36 7 -108 17 -160 23 -115 14 -284 47 -510 100 -58 14 -162 50
-245 85 -16 7 -84 34 -150 60 -66 26 -160 69 -210 94 -49 26 -124 62 -165 80
-106 48 -357 198 -455 274 -75 58 -213 163 -271 207 -28 21 -57 44 -65 52 -8
7 -27 22 -43 33 -96 66 -198 146 -301 235 -55 47 -110 95 -123 106 -171 144
-463 491 -591 703 -25 42 -49 78 -53 79 -5 2 -8 8 -8 13 0 5 -15 32 -33 61
-30 48 -197 381 -197 393 0 6 -37 91 -51 118 -19 35 -148 435 -169 522 -44
186 -50 214 -79 375 -54 300 -66 448 -65 835 0 208 5 391 12 450 6 55 16 139
22 188 11 97 70 410 99 527 72 288 172 577 298 855 62 138 234 458 285 530 16
22 50 73 76 113 56 87 210 293 255 342 18 19 60 69 94 110 76 93 300 320 413
418 47 41 90 81 97 89 6 8 38 35 70 61 33 26 94 74 135 107 342 270 752 511
1158 682 115 48 201 81 395 148 50 17 273 78 340 93 28 6 79 18 115 26 118 28
366 66 517 80 203 19 543 19 748 1z"/>
<path d="M6190 11025 c-85 -7 -162 -15 -170 -18 -8 -3 -37 -8 -65 -10 -156
-16 -436 -77 -655 -143 -252 -77 -283 -88 -487 -174 -13 -6 -33 -14 -45 -18
-47 -18 -456 -224 -515 -259 -34 -21 -96 -58 -137 -83 -74 -44 -346 -227 -356
-240 -3 -4 -36 -30 -75 -59 -270 -205 -601 -524 -806 -776 -305 -375 -528
-750 -703 -1184 -84 -208 -115 -298 -180 -537 -125 -456 -166 -776 -166 -1292
0 -553 66 -977 231 -1487 128 -395 389 -880 645 -1200 97 -121 371 -399 484
-491 109 -89 228 -181 293 -225 32 -22 79 -59 106 -82 131 -115 373 -290 521
-376 135 -80 303 -161 625 -304 195 -87 555 -185 795 -217 47 -6 112 -15 145
-20 33 -5 159 -14 281 -21 225 -13 577 -2 749 22 39 5 106 14 150 20 241 32
663 142 905 236 380 148 565 239 903 446 283 174 660 483 908 745 423 445 762
971 987 1532 88 221 162 438 185 550 3 14 22 88 42 165 20 77 41 172 46 210 6
39 15 95 20 125 20 119 51 484 48 565 -1 33 1 76 4 95 6 30 2 128 -16 377 -1
23 -5 44 -8 48 -3 3 -2 22 4 43 9 35 -9 232 -42 457 -5 33 -12 83 -16 110 -7
54 -30 143 -76 301 -16 56 -29 107 -29 114 0 7 -6 26 -14 43 -8 18 -21 61 -31
97 -9 36 -41 121 -70 190 -29 69 -67 161 -86 205 -18 44 -45 101 -61 128 -15
26 -55 100 -89 165 -34 64 -72 131 -84 147 -13 17 -58 82 -101 146 -77 114
-93 134 -204 268 -112 135 -298 322 -435 437 -38 32 -72 61 -75 64 -32 37
-359 280 -376 280 -25 0 -15 -19 24 -44 43 -28 185 -165 257 -250 28 -32 60
-67 73 -79 12 -11 22 -25 22 -30 0 -5 9 -20 20 -34 11 -14 20 -23 20 -20 0 3
11 -4 25 -17 14 -13 25 -27 25 -31 0 -4 9 -18 20 -32 11 -14 20 -30 20 -34 0
-18 -28 -8 -44 16 -9 14 -14 25 -12 25 8 0 -38 53 -104 119 -36 37 -78 83 -94
104 -15 21 -36 41 -45 45 -20 8 -50 43 -51 59 0 7 -15 23 -34 35 -40 28 -143
116 -204 175 -24 23 -46 43 -50 45 -37 18 -82 53 -82 64 0 8 -7 14 -15 14 -7
0 -18 6 -22 13 -4 8 -33 27 -63 43 -30 16 -59 39 -65 52 -5 12 -13 22 -18 22
-5 0 -15 6 -23 14 -7 8 -22 12 -32 9 -12 -3 -31 8 -53 29 -29 29 -131 98 -144
98 -2 0 -15 11 -29 25 -14 14 -34 25 -46 25 -11 0 -20 3 -20 8 0 14 -78 44
-99 37 -15 -4 -21 -2 -21 9 0 9 -24 27 -57 43 -32 14 -80 39 -106 55 -26 15
-56 28 -66 28 -10 0 -21 3 -25 7 -3 4 -22 12 -42 19 -34 12 -35 12 -18 -7 9
-10 24 -19 33 -20 9 0 11 -3 5 -5 -10 -4 -91 30 -149 65 -16 10 -55 26 -85 35
-30 10 -63 22 -72 27 -24 12 -81 11 -73 -1 3 -5 0 -10 -8 -10 -21 0 -28 12
-16 27 6 7 8 13 3 13 -5 1 -29 5 -54 10 -83 18 -252 39 -266 33 -8 -3 -26 2
-40 12 -14 9 -35 15 -46 12 -10 -3 -45 1 -76 8 -145 35 -576 45 -882 20z
m-170 -1194 c0 -6 15 -26 33 -46 34 -37 29 -26 627 -1345 194 -426 363 -800
377 -830 14 -30 47 -102 73 -160 26 -58 117 -258 202 -445 205 -448 206 -450
241 -525 16 -36 98 -216 182 -400 84 -184 228 -499 320 -700 372 -813 434
-950 443 -982 15 -54 6 -90 -29 -122 l-33 -29 -330 7 c-182 4 -376 9 -431 12
-55 2 -255 9 -445 14 -190 6 -362 15 -382 20 -20 6 -47 23 -59 38 l-21 27 64
5 63 6 -58 4 -58 5 41 60 41 60 -40 -45 c-23 -25 -41 -39 -41 -32 0 7 39 54
88 105 114 122 147 186 146 282 -1 38 -7 118 -14 177 -17 142 -10 217 26 271
38 58 127 167 268 327 127 145 153 186 162 252 5 35 2 48 -16 71 -22 28 -24
28 -94 22 -121 -11 -153 15 -337 270 -93 130 -147 230 -184 342 -15 45 -41
103 -58 130 -17 26 -49 82 -71 123 -55 100 -78 112 -202 104 -82 -6 -99 -4
-175 21 l-84 28 -70 -18 c-177 -47 -284 -1 -331 143 -30 95 -56 106 -230 100
-104 -3 -111 -5 -163 -38 -53 -34 -57 -35 -148 -33 -66 2 -102 -1 -122 -11
-42 -22 -99 -90 -125 -150 -14 -31 -43 -71 -67 -92 -124 -113 -173 -163 -195
-199 -28 -49 -44 -145 -44 -278 0 -88 -3 -107 -32 -175 -28 -67 -32 -89 -33
-167 0 -77 3 -96 24 -131 35 -62 134 -131 232 -163 30 -9 122 -17 139 -11 33
11 100 14 292 12 210 -2 230 -3 265 -23 93 -51 153 -147 153 -243 0 -75 19
-149 52 -201 66 -104 79 -137 79 -212 0 -38 -11 -129 -25 -201 -32 -165 -34
-280 -6 -354 40 -106 16 -160 -77 -178 -28 -5 -60 -8 -70 -6 -10 2 -160 7
-333 10 -173 4 -331 9 -350 11 -19 2 -156 6 -305 10 -148 3 -297 8 -330 10
-33 2 -195 7 -360 10 -367 8 -458 16 -493 42 -47 35 -40 43 45 45 76 2 77 2
16 5 -44 3 -63 8 -63 17 0 21 47 142 91 234 21 46 39 85 39 87 0 3 18 43 40
90 22 47 40 89 40 93 0 4 9 24 19 44 11 20 48 98 82 175 34 76 79 176 101 223
22 47 49 107 60 135 10 27 26 61 33 75 8 14 37 75 64 135 27 61 68 151 91 200
61 131 170 375 170 380 0 5 131 285 196 421 19 39 34 73 34 77 0 7 169 382
331 736 49 107 87 196 84 199 -7 7 -7 7 -42 -73 -87 -198 -379 -840 -413 -910
-39 -79 -85 -181 -200 -440 -32 -71 -90 -200 -129 -285 -40 -85 -76 -164 -81
-175 -69 -157 -104 -234 -116 -252 -7 -12 -41 -86 -75 -165 -34 -79 -95 -215
-136 -303 -41 -88 -83 -180 -93 -205 -10 -25 -40 -92 -68 -150 -28 -58 -68
-148 -90 -201 -22 -53 -47 -109 -55 -125 -14 -25 -16 -26 -17 -8 0 35 17 77
285 664 141 311 346 761 455 1000 109 239 219 479 244 533 25 54 46 99 46 101
0 2 17 42 39 88 33 71 70 152 224 488 14 30 96 210 182 400 86 190 219 480
295 645 76 165 240 523 365 795 124 272 238 514 251 538 29 49 44 51 20 3 -22
-41 -37 -81 -31 -81 5 0 16 24 68 143 11 25 37 38 37 18z m3635 -332 l16 -30
-25 17 c-14 9 -26 23 -26 30 0 24 19 15 35 -17z m110 -169 c3 -6 -1 -7 -9 -4
-18 7 -21 14 -7 14 6 0 13 -4 16 -10z m579 -1041 c3 -3 7 -26 10 -52 5 -49 -7
-64 -20 -24 -3 12 -13 29 -21 39 -11 12 -11 18 -2 24 7 4 10 3 5 -4 -3 -6 -2
-13 3 -16 10 -7 9 13 -2 31 -7 11 17 13 27 2z m29 -182 c-8 -13 -23 3 -23 26
0 20 0 20 14 2 8 -11 12 -23 9 -28z m23 -50 c22 -3 64 -26 49 -27 -6 0 -10
-39 -10 -98 0 -75 3 -96 13 -94 8 1 11 -2 7 -8 -3 -6 -10 -8 -15 -5 -5 3 -12
0 -15 -6 -5 -6 0 -9 11 -8 11 2 25 0 33 -5 9 -6 12 -5 8 0 -3 6 -2 16 3 24 8
13 12 13 26 -2 19 -19 26 -108 8 -108 -6 0 -16 -11 -22 -25 -10 -21 -9 -25 4
-25 8 0 17 7 20 15 9 23 24 18 24 -8 0 -13 8 -31 18 -40 17 -16 20 -15 42 8
18 19 26 22 37 14 7 -6 13 -8 13 -4 0 4 6 2 14 -4 10 -8 16 -9 21 -1 3 6 11 7
17 4 6 -4 5 -10 -3 -16 -10 -6 -7 -7 9 -3 21 6 22 4 17 -32 -4 -33 -3 -35 5
-14 15 35 28 15 31 -46 2 -29 6 -53 11 -53 4 0 8 -22 8 -48 0 -26 6 -54 13
-61 10 -10 9 -12 -3 -9 -16 3 -16 -34 1 -40 5 -2 9 -8 9 -13 0 -6 -4 -7 -10
-4 -5 3 -1 -14 10 -37 11 -24 20 -58 20 -76 0 -18 4 -31 9 -27 17 10 26 -19
28 -95 5 -121 4 -140 -4 -153 -11 -17 -12 -57 -1 -51 4 3 5 10 2 16 -4 7 -2 8
4 4 6 -4 9 -13 5 -22 -3 -8 2 -23 11 -33 13 -14 14 -21 5 -27 -7 -4 -10 -3 -5
4 3 6 2 13 -3 16 -13 9 -7 -19 8 -38 13 -15 8 -21 -14 -16 -5 1 -1 -8 9 -19
17 -19 15 -26 -6 -22 -5 0 -8 -6 -8 -15 0 -13 -3 -14 -13 -5 -17 13 -27 5 -20
-17 4 -14 3 -15 -5 -2 -17 23 -62 21 -72 -4 -8 -20 -9 -20 -10 4 -6 79 -5 122
2 126 5 3 5 11 1 17 -11 17 -12 57 -1 57 12 0 10 25 -7 56 l-15 29 0 -28 c0
-20 -4 -26 -12 -20 -7 4 -21 8 -30 9 -10 1 -25 2 -33 3 -8 0 -15 7 -15 14 0 8
-9 22 -21 33 -18 16 -20 28 -17 96 l3 78 -29 0 c-21 0 -27 -4 -22 -15 3 -9 0
-15 -9 -15 -10 0 -15 -11 -15 -32 0 -18 -6 -41 -14 -50 -11 -15 -12 -1 -11 85
2 63 -2 107 -9 116 -9 12 -8 13 4 6 13 -8 13 -6 1 8 -7 9 -15 47 -17 84 -2 38
-6 91 -9 118 -4 28 -8 69 -10 93 -2 23 -9 50 -16 58 -8 10 -12 44 -12 92 0 46
-5 84 -12 97 -8 11 -15 31 -17 45 -2 14 -7 28 -11 31 -5 4 -10 26 -12 50 -2
24 -1 36 2 26 2 -9 9 -14 15 -11 5 4 1 15 -12 29 -25 27 -43 108 -18 88 8 -7
23 -14 34 -16z m145 -44 c12 -16 12 -17 -2 -6 -9 7 -20 9 -24 5 -5 -4 -5 -1
-1 6 9 16 11 15 27 -5z m-58 -119 c-4 -12 -8 -13 -14 -3 -5 8 -9 2 -12 -17
l-4 -29 -2 33 c-1 26 3 32 19 32 14 0 18 -5 13 -16z m172 6 c3 -5 -1 -10 -9
-10 -9 0 -16 5 -16 10 0 6 4 10 9 10 6 0 13 -4 16 -10z m-98 -92 c-3 -8 -6 -5
-6 6 -1 11 2 17 5 13 3 -3 4 -12 1 -19z m8 -58 c4 -7 11 -8 18 -2 7 6 21 6 36
1 34 -13 11 -36 -36 -34 -31 0 -39 5 -41 23 -3 23 12 30 23 12z m235 -242 c0
-16 -3 -19 -11 -11 -6 6 -8 16 -5 22 11 17 16 13 16 -11z m30 -124 c0 -19 -4
-34 -9 -34 -12 0 -25 56 -16 70 12 19 25 0 25 -36z m-293 -346 c-3 -8 -6 -5
-6 6 -1 11 2 17 5 13 3 -3 4 -12 1 -19z m1 -75 c1 -24 -1 -33 -6 -25 -7 10 -8
43 -3 60 4 10 7 -4 9 -35z m287 -338 c13 0 14 -27 1 -44 -8 -11 -8 -13 2 -7 6
4 12 2 12 -3 0 -6 -3 -11 -7 -12 -5 0 -16 -2 -25 -4 -18 -3 -20 4 -20 55 0 30
1 32 15 23 6 -4 17 -8 22 -8z m-545 -524 c0 -11 -5 -23 -10 -26 -6 -4 -8 -11
-5 -16 4 -5 1 -9 -4 -9 -12 0 -14 29 -5 54 9 22 24 20 24 -3z m-3639 -21 c10
-6 29 -30 41 -53 l23 -42 3 -787 c3 -859 5 -826 -53 -864 -28 -18 -90 -15
-142 7 -29 12 -39 11 -87 -5 -62 -21 -89 -17 -146 20 l-39 26 -44 -26 c-74
-44 -150 -27 -182 41 -24 51 -21 473 4 529 27 60 46 74 100 74 26 0 56 -7 67
-15 53 -40 62 -4 66 265 3 190 6 230 20 255 10 17 20 38 24 48 9 23 44 31 109
23 44 -5 54 -3 61 12 4 9 10 105 14 212 4 146 9 201 20 220 13 22 16 -64 20
-795 l5 -820 3 833 2 833 23 9 c30 12 64 12 88 0z m3599 -185 c-6 -30 -15 -55
-19 -55 -5 0 -7 -12 -5 -27 3 -34 -23 -137 -47 -185 -11 -21 -19 -45 -19 -55
0 -20 -74 -244 -110 -333 -12 -30 -27 -69 -34 -85 -6 -17 -19 -43 -29 -58 -9
-14 -17 -31 -17 -37 0 -6 -4 -18 -10 -28 -5 -9 -23 -48 -39 -87 -40 -94 -100
-205 -111 -205 -5 0 -16 -22 -25 -49 -9 -27 -34 -74 -55 -104 -22 -31 -40 -58
-40 -62 0 -6 -70 -117 -95 -150 -21 -27 -98 -140 -132 -193 -15 -24 -55 -75
-88 -114 -33 -38 -67 -80 -75 -93 -45 -67 -507 -545 -527 -545 -5 0 -37 -27
-73 -60 -36 -33 -73 -63 -82 -66 -9 -3 -20 -13 -23 -24 -3 -10 -39 -41 -79
-68 -40 -28 -78 -58 -86 -66 -7 -9 -27 -16 -44 -15 l-31 0 29 22 c16 12 39 31
52 42 12 11 41 36 63 55 23 19 70 61 104 94 71 67 114 96 132 90 7 -3 18 9 25
26 7 17 46 63 87 103 41 39 82 81 91 91 23 27 65 67 96 91 14 11 27 27 28 35
2 8 37 49 80 91 42 42 87 94 101 115 14 22 43 59 66 82 23 24 41 47 41 52 0 5
8 16 17 25 45 46 93 112 98 137 4 15 13 28 21 28 8 0 24 19 34 43 11 24 28 52
40 62 11 10 20 23 20 30 0 7 9 20 20 30 11 10 25 33 32 51 7 19 19 36 27 39 9
3 36 49 61 101 25 53 53 104 63 114 9 11 17 22 17 26 0 3 8 18 19 32 10 15 31
56 46 92 15 36 47 106 71 156 24 50 44 96 44 101 0 6 6 16 14 22 8 7 17 28 21
49 4 20 13 49 21 64 8 15 14 29 13 30 0 2 9 28 21 58 12 30 27 78 35 105 7 28
21 64 29 80 9 17 16 39 16 50 0 11 6 32 14 47 8 14 17 46 21 70 4 24 12 54 18
68 11 28 13 35 22 100 4 25 12 54 18 65 11 18 12 17 15 -13 2 -18 -2 -57 -8
-87z m-1900 -2794 c0 -12 -9 -23 -22 -27 -13 -4 -43 -24 -67 -45 -24 -22 -49
-39 -56 -39 -6 0 -20 -9 -30 -20 -10 -11 -27 -22 -39 -26 -11 -4 -39 -21 -61
-38 -22 -18 -58 -40 -80 -50 -22 -10 -62 -33 -90 -52 -27 -18 -66 -36 -85 -39
-34 -5 -33 -5 8 11 28 10 47 25 52 40 7 17 17 24 38 24 18 0 36 10 54 30 14
17 35 30 47 30 11 0 26 8 33 18 7 9 47 40 88 67 41 27 77 52 80 56 3 3 20 14
38 23 17 9 32 20 32 25 0 8 37 29 53 30 4 1 7 -8 7 -18z m-560 -361 c0 -5 -4
-10 -9 -10 -5 0 -18 -3 -28 -6 -16 -5 -16 -4 1 10 23 18 36 20 36 6z m-79 -40
c-21 -18 -61 -28 -61 -15 0 6 60 33 75 34 6 0 -1 -9 -14 -19z m-168 -85 c-3
-9 -8 -14 -10 -11 -3 3 -2 9 2 15 9 16 15 13 8 -4z"/>
<path d="M5892 9635 c-17 -37 -14 -45 4 -12 9 16 14 31 11 33 -2 2 -9 -7 -15
-21z"/>
<path d="M5856 9553 c-6 -14 -5 -15 5 -6 7 7 10 15 7 18 -3 3 -9 -2 -12 -12z"/>
<path d="M5826 9494 c-9 -20 -14 -39 -12 -42 3 -3 13 12 21 33 21 48 14 56 -9
9z"/>
<path d="M5785 9400 c-4 -12 -5 -24 -2 -27 3 -2 8 5 12 17 4 12 5 24 2 27 -3
2 -8 -5 -12 -17z"/>
<path d="M5751 9334 c-17 -38 -6 -42 14 -5 8 17 12 31 7 31 -5 0 -14 -12 -21
-26z"/>
<path d="M5710 9235 c0 -8 2 -15 4 -15 2 0 6 7 10 15 3 8 1 15 -4 15 -6 0 -10
-7 -10 -15z"/>
<path d="M5676 9155 c-9 -26 -7 -32 5 -12 6 10 9 21 6 23 -2 3 -7 -2 -11 -11z"/>
<path d="M5606 9005 c-9 -26 -7 -32 5 -12 6 10 9 21 6 23 -2 3 -7 -2 -11 -11z"/>
<path d="M5572 8925 c-17 -37 -14 -45 4 -12 9 16 14 31 11 33 -2 2 -9 -7 -15
-21z"/>
<path d="M5516 8804 c-14 -31 -26 -59 -26 -63 1 -8 29 44 46 86 23 55 7 37
-20 -23z"/>
<path d="M5467 8695 c-24 -50 -20 -58 4 -12 11 22 19 41 17 43 -3 2 -12 -12
-21 -31z"/>
<path d="M5402 8555 c-30 -62 -27 -71 4 -12 14 27 24 51 22 53 -3 2 -14 -17
-26 -41z"/>
<path d="M5352 8445 c-17 -37 -14 -45 4 -12 9 16 14 31 11 33 -2 2 -9 -7 -15
-21z"/>
<path d="M5271 8269 c-22 -51 -40 -94 -38 -96 2 -2 23 38 46 88 22 51 40 94
38 96 -2 2 -23 -38 -46 -88z"/>
<path d="M5192 8095 c-17 -37 -14 -45 4 -12 9 16 14 31 11 33 -2 2 -9 -7 -15
-21z"/>
<path d="M5145 7997 c-27 -59 -34 -89 -8 -43 22 42 44 96 38 96 -2 0 -16 -24
-30 -53z"/>
<path d="M5073 7850 c-14 -36 -1 -40 15 -5 14 31 15 35 4 35 -4 0 -13 -13 -19
-30z"/>
<path d="M5590 7251 c0 -9 149 -3 159 5 2 2 -32 4 -77 4 -45 0 -82 -4 -82 -9z"/>
<path d="M5445 7220 c-3 -5 -2 -10 4 -10 5 0 13 5 16 10 3 6 2 10 -4 10 -5 0
-13 -4 -16 -10z"/>
<path d="M5871 7214 c0 -11 3 -14 6 -6 3 7 2 16 -1 19 -3 4 -6 -2 -5 -13z"/>
<path d="M5225 7190 c4 -6 11 -8 16 -5 14 9 11 15 -7 15 -8 0 -12 -5 -9 -10z"/>
<path d="M5883 7145 c0 -22 2 -30 4 -17 2 12 2 30 0 40 -3 9 -5 -1 -4 -23z"/>
<path d="M5385 7160 c-4 -6 -11 -8 -16 -5 -5 4 -9 2 -9 -3 0 -19 27 -20 38 -1
7 10 8 19 3 19 -6 0 -13 -5 -16 -10z"/>
<path d="M5115 7130 c-16 -17 -16 -20 -3 -15 9 4 19 13 22 21 7 19 2 18 -19
-6z"/>
<path d="M5900 7064 c0 -1 5 -14 11 -27 14 -32 60 -59 79 -47 12 8 12 10 -3
10 -11 0 -34 15 -53 34 -19 19 -34 32 -34 30z"/>
<path d="M6263 7033 c9 -2 23 -2 30 0 6 3 -1 5 -18 5 -16 0 -22 -2 -12 -5z"/>
<path d="M6325 7007 c9 -14 23 -28 31 -31 25 -9 15 9 -17 33 l-31 23 17 -25z"/>
<path d="M6135 6990 c3 -5 8 -10 11 -10 2 0 4 5 4 10 0 6 -5 10 -11 10 -5 0
-7 -4 -4 -10z"/>
<path d="M6020 6979 c0 -5 5 -7 10 -4 6 3 10 8 10 11 0 2 -4 4 -10 4 -5 0 -10
-5 -10 -11z"/>
<path d="M6640 6979 c0 -5 5 -7 10 -4 6 3 10 1 10 -5 0 -6 5 -8 10 -5 6 3 13
-1 16 -9 3 -9 11 -16 18 -16 13 1 -41 50 -55 50 -5 0 -9 -5 -9 -11z"/>
<path d="M6380 6970 c0 -5 5 -10 10 -10 6 0 10 5 10 10 0 6 -4 10 -10 10 -5 0
-10 -4 -10 -10z"/>
<path d="M6505 6970 c3 -5 8 -10 11 -10 2 0 4 5 4 10 0 6 -5 10 -11 10 -5 0
-7 -4 -4 -10z"/>
<path d="M6420 6960 c0 -5 5 -10 10 -10 6 0 10 5 10 10 0 6 -4 10 -10 10 -5 0
-10 -4 -10 -10z"/>
<path d="M6465 6960 c3 -5 10 -10 16 -10 5 0 9 5 9 10 0 6 -7 10 -16 10 -8 0
-12 -4 -9 -10z"/>
<path d="M6726 6885 c4 -8 11 -15 16 -15 6 0 5 6 -2 15 -7 8 -14 15 -16 15 -2
0 -1 -7 2 -15z"/>
<path d="M4850 6805 c-41 -41 -72 -75 -69 -75 2 0 38 34 79 75 41 41 72 75 69
75 -2 0 -38 -34 -79 -75z"/>
<path d="M6750 6814 c0 -8 5 -12 10 -9 6 4 8 11 5 16 -9 14 -15 11 -15 -7z"/>
<path d="M6781 6764 c13 -14 38 -35 54 -47 23 -15 20 -9 -15 26 -24 26 -49 47
-54 47 -5 0 1 -12 15 -26z"/>
<path d="M6869 6634 c-3 -10 3 -35 12 -54 22 -42 22 -40 5 24 -8 33 -14 43
-17 30z"/>
<path d="M6915 6490 c9 -32 90 -168 127 -211 16 -19 6 0 -21 41 -28 42 -64
103 -81 135 -17 33 -28 49 -25 35z"/>
<path d="M4689 6253 c-13 -16 -12 -17 4 -4 9 7 17 15 17 17 0 8 -8 3 -21 -13z"/>
<path d="M7075 6230 c3 -5 8 -10 11 -10 2 0 4 5 4 10 0 6 -5 10 -11 10 -5 0
-7 -4 -4 -10z"/>
<path d="M7100 6196 c0 -2 7 -9 15 -16 13 -11 14 -10 9 4 -5 14 -24 23 -24 12z"/>
<path d="M7170 6115 c0 -16 86 -115 100 -115 12 1 11 3 -3 11 -10 6 -35 33
-57 61 -22 27 -40 47 -40 43z"/>
<path d="M7440 6046 c0 -2 9 -6 20 -9 11 -3 18 -1 14 4 -5 9 -34 13 -34 5z"/>
<path d="M7365 6015 c-16 -8 -23 -14 -14 -15 8 0 24 7 35 15 23 18 18 18 -21
0z"/>
<path d="M7298 5993 c6 -2 18 -2 25 0 6 3 1 5 -13 5 -14 0 -19 -2 -12 -5z"/>
<path d="M7522 5955 c0 -16 2 -22 5 -12 2 9 2 23 0 30 -3 6 -5 -1 -5 -18z"/>
<path d="M7491 5764 c0 -11 3 -14 6 -6 3 7 2 16 -1 19 -3 4 -6 -2 -5 -13z"/>
<path d="M7421 5677 c-13 -21 -12 -21 5 -5 10 10 16 20 13 22 -3 3 -11 -5 -18
-17z"/>
<path d="M7310 5565 c-8 -9 -8 -15 -2 -15 12 0 26 19 19 26 -2 2 -10 -2 -17
-11z"/>
<path d="M7257 5503 c-4 -3 -7 -11 -7 -17 0 -6 5 -5 12 2 6 6 9 14 7 17 -3 3
-9 2 -12 -2z"/>
<path d="M7207 5443 c-4 -3 -7 -11 -7 -17 0 -6 5 -5 12 2 6 6 9 14 7 17 -3 3
-9 2 -12 -2z"/>
<path d="M7109 5313 c-13 -16 -12 -17 4 -4 9 7 17 15 17 17 0 8 -8 3 -21 -13z"/>
<path d="M7073 5268 c-16 -20 -33 -79 -32 -107 1 -17 4 -12 10 17 4 24 15 56
23 73 15 31 15 37 -1 17z"/>
<path d="M7052 5105 c0 -16 2 -22 5 -12 2 9 2 23 0 30 -3 6 -5 -1 -5 -18z"/>
<path d="M7062 5040 c0 -14 2 -19 5 -12 2 6 2 18 0 25 -3 6 -5 1 -5 -13z"/>
<path d="M7073 4950 c0 -25 2 -35 4 -22 2 12 2 32 0 45 -2 12 -4 2 -4 -23z"/>
<path d="M7079 4815 c-3 -44 -9 -89 -12 -100 -4 -11 0 -5 8 13 11 23 15 56 13
100 l-3 67 -6 -80z"/>
<path d="M6954 4564 c-18 -14 -18 -15 4 -4 12 6 22 13 22 15 0 8 -5 6 -26 -11z"/>
<path d="M3928 4453 c23 -2 61 -2 85 0 23 2 4 4 -43 4 -47 0 -66 -2 -42 -4z"/>
<path d="M4293 4443 c26 -2 67 -2 90 0 23 2 2 3 -48 3 -49 0 -68 -1 -42 -3z"/>
<path d="M4643 4433 c20 -2 54 -2 75 0 20 2 3 4 -38 4 -41 0 -58 -2 -37 -4z"/>
<path d="M5008 4423 c23 -2 61 -2 85 0 23 2 4 4 -43 4 -47 0 -66 -2 -42 -4z"/>
<path d="M5363 4413 c26 -2 67 -2 90 0 23 2 2 3 -48 3 -49 0 -68 -1 -42 -3z"/>
<path d="M5718 4403 c23 -2 59 -2 80 0 20 2 1 4 -43 4 -44 0 -61 -2 -37 -4z"/>
<path d="M7153 4363 c26 -2 67 -2 90 0 23 2 2 3 -48 3 -49 0 -68 -1 -42 -3z"/>
<path d="M7518 4353 c23 -2 59 -2 80 0 20 2 1 4 -43 4 -44 0 -61 -2 -37 -4z"/>
<path d="M7868 4343 c23 -2 61 -2 85 0 23 2 4 4 -43 4 -47 0 -66 -2 -42 -4z"/>
<path d="M8233 4333 c26 -2 67 -2 90 0 23 2 2 3 -48 3 -49 0 -68 -1 -42 -3z"/>
<path d="M8488 4323 c7 -3 16 -2 19 1 4 3 -2 6 -13 5 -11 0 -14 -3 -6 -6z"/>
<path d="M10400 7910 c0 -5 5 -10 11 -10 5 0 7 5 4 10 -3 6 -8 10 -11 10 -2 0
-4 -4 -4 -10z"/>
<path d="M10516 7577 c4 -12 7 -28 7 -34 0 -7 6 -13 14 -13 7 0 13 11 13 26 0
17 -4 23 -12 18 -10 -6 -10 -5 -1 7 10 12 8 15 -8 16 -16 2 -19 -2 -13 -20z"/>
<path d="M10721 7524 c0 -11 3 -14 6 -6 3 7 2 16 -1 19 -3 4 -6 -2 -5 -13z"/>
<path d="M10745 7450 c3 -5 8 -10 11 -10 2 0 4 5 4 10 0 6 -5 10 -11 10 -5 0
-7 -4 -4 -10z"/>
<path d="M10712 7381 c7 -9 14 -18 15 -20 2 -2 3 5 3 16 0 11 -7 20 -15 20
-12 0 -12 -3 -3 -16z"/>
<path d="M10746 7343 c-9 -10 -7 -55 3 -49 12 8 21 45 11 51 -4 2 -10 2 -14
-2z"/>
<path d="M10524 7315 c0 -13 3 -22 7 -19 8 4 6 30 -2 38 -3 3 -5 -5 -5 -19z"/>
<path d="M6292 4517 c-3 -124 4 -137 66 -137 26 0 56 7 66 15 11 8 15 15 9 15
-7 0 -15 -4 -18 -10 -9 -14 -78 -12 -98 3 -13 9 -17 33 -20 112 l-3 100 -2
-98z"/>
<path d="M6042 4410 c5 -17 108 -27 133 -12 10 5 -7 7 -45 4 -42 -3 -65 0 -77
9 -14 12 -16 12 -11 -1z"/>
<path d="M6550 4386 c0 -2 18 -6 40 -8 22 -2 40 0 40 4 0 5 -18 8 -40 8 -22 0
-40 -2 -40 -4z"/>
<path d="M9040 10150 c0 -5 7 -10 16 -10 8 0 12 5 9 10 -3 6 -10 10 -16 10 -5
0 -9 -4 -9 -10z"/>
</g>
</svg>
