<svg width="198" height="173" viewBox="0 0 198 173" fill="none" xmlns="http://www.w3.org/2000/svg">
<g id="Brand Icon">
<path id="Union" fill-rule="evenodd" clip-rule="evenodd" d="M76.113 24.9291C76.0057 25.1428 75.9013 25.3573 75.8 25.5725L28.9211 118.893C28.84 119.047 28.7602 119.203 28.6816 119.359C21.8474 132.964 27.336 149.533 40.9408 156.367C54.5457 163.201 71.1148 157.713 77.9491 144.108L77.9503 144.106L77.9546 144.108L79.6231 140.786C83.1752 136.452 91.667 131.548 103.606 133.538C111.278 134.817 115.552 137.069 118.747 140.173C122.543 152.304 133.87 161.106 147.253 161.106C163.747 161.106 177.117 147.736 177.117 131.242C177.117 114.748 163.747 101.378 147.253 101.378C134.442 101.378 123.516 109.444 119.275 120.774C115.928 123.286 109.949 125.224 103.606 122.052C96.03 118.264 95.8932 111.314 96.5023 107.185L125.39 49.6787L125.382 49.6747C132.214 36.0705 126.725 19.5036 113.121 12.6699C99.5165 5.83567 82.9473 11.3243 76.113 24.9291Z" fill="#2A77EB"/>
</g>
</svg>
