<svg width="20" height="14" viewBox="0 0 20 14" fill="none" xmlns="http://www.w3.org/2000/svg">
<g id="Icontyl/Line/Nigeria">
<path id="Vector" d="M2.15222 0.543457C1.58141 0.543457 1.03399 0.752766 0.63037 1.12534C0.226751 1.49791 0 2.00322 0 2.53012L0 11.4701C0 11.997 0.226751 12.5023 0.63037 12.8749C1.03399 13.2475 1.58141 13.4568 2.15222 13.4568H6.45666V0.543457H2.15222Z" fill="#009A49"/>
<path id="Vector_2" d="M6.45703 0.543457H12.9137V13.4568H6.45703V0.543457Z" fill="white"/>
<path id="Vector_3" d="M17.2185 0.543457H12.9141V13.4568H17.2185C17.7893 13.4568 18.3367 13.2475 18.7403 12.8749C19.144 12.5023 19.3707 11.997 19.3707 11.4701V2.53012C19.3707 2.00322 19.144 1.49791 18.7403 1.12534C18.3367 0.752766 17.7893 0.543457 17.2185 0.543457Z" fill="#009A49"/>
</g>
</svg>
