<svg width="23" height="18" viewBox="0 0 23 18" fill="none" xmlns="http://www.w3.org/2000/svg">
<g id="Wallet">
<path id="Wallet_2" fill-rule="evenodd" clip-rule="evenodd" d="M18.0355 5.3818H22.8062C22.8062 1.98459 20.511 0 16.6223 0H6.43937C2.55063 0 0.255463 1.98459 0.255463 5.33847V12.6615C0.255463 16.0154 2.55063 18 6.43937 18H16.6223C20.511 18 22.8062 16.0154 22.8062 12.6615V12.3495H18.0355C15.8213 12.3495 14.0264 10.7975 14.0264 8.883C14.0264 6.96849 15.8213 5.41647 18.0355 5.41647V5.3818ZM18.0355 6.87241H21.9643C22.4293 6.87241 22.8062 7.19834 22.8062 7.60038V10.131C22.8008 10.5311 22.427 10.8543 21.9643 10.8589H18.1257C17.0048 10.872 16.0246 10.2084 15.7704 9.26432C15.643 8.67829 15.8218 8.07357 16.2587 7.61222C16.6956 7.15087 17.3459 6.88007 18.0355 6.87241ZM18.2058 9.53298H18.5767C19.0527 9.53298 19.4386 9.1993 19.4386 8.78767C19.4386 8.37605 19.0527 8.04237 18.5767 8.04237H18.2058C17.9782 8.04005 17.7589 8.11664 17.597 8.25504C17.435 8.39344 17.3439 8.58213 17.3439 8.77901C17.3439 9.19205 17.7282 9.52823 18.2058 9.53298ZM5.59748 5.3818H11.9618C12.4378 5.3818 12.8237 5.04812 12.8237 4.6365C12.8237 4.22487 12.4378 3.89119 11.9618 3.89119H5.59748C5.12533 3.89116 4.74103 4.2196 4.73554 4.62783C4.73551 5.04087 5.11983 5.37705 5.59748 5.3818Z" fill="#202B3C"/>
</g>
</svg>
