<svg width="52" height="53" viewBox="0 0 52 53" fill="none" xmlns="http://www.w3.org/2000/svg">
<g id="Brand Icon">
<path id="Union" fill-rule="evenodd" clip-rule="evenodd" d="M19.0005 9.74135C18.971 9.80004 18.9424 9.85893 18.9146 9.918L6.07955 35.4681C6.05792 35.5093 6.03662 35.5508 6.01565 35.5925C4.14468 39.317 5.64727 43.8529 9.37176 45.7239C13.0963 47.5948 17.6323 46.0923 19.5032 42.3678L19.5034 42.3674L19.5046 42.368L19.9621 41.4572C20.935 40.2709 23.2594 38.9292 26.5269 39.4738C28.627 39.8238 29.7968 40.4401 30.6715 41.2897C31.7108 44.6109 34.8117 47.021 38.4756 47.021C42.991 47.021 46.6514 43.3606 46.6514 38.8453C46.6514 34.33 42.991 30.6696 38.4756 30.6696C34.9684 30.6696 31.977 32.8779 30.816 35.9799C29.8998 36.6674 28.2633 37.1975 26.527 36.3293C24.4535 35.2925 24.4155 33.3906 24.5821 32.2603L32.4907 16.517L32.4885 16.5159C34.3589 12.7916 32.8562 8.2561 29.132 6.38527C25.4075 4.51432 20.8715 6.01689 19.0005 9.74135Z" fill="white"/>
</g>
</svg>
